<mxfile host="app.diagrams.net" modified="2024-07-05T15:29:10.233Z" agent="Mozilla/5.0 (Macintosh; Intel Mac OS X 10_15_7) AppleWebKit/605.1.15 (KHTML, like Gecko) Version/17.5 Safari/605.1.15" etag="mFgocfREDy4VA-_Iriit" version="24.6.4" type="device">
  <diagram name="Page-1" id="1W-PYEjeoNjddT0IosxZ">
    <mxGraphModel dx="1805" dy="603" grid="1" gridSize="10" guides="1" tooltips="1" connect="1" arrows="1" fold="1" page="1" pageScale="1" pageWidth="827" pageHeight="1169" math="0" shadow="0">
      <root>
        <mxCell id="0" />
        <mxCell id="1" parent="0" />
        <mxCell id="uZyzI6NEN6Hpzn3eU7x3-1" value="User" style="swimlane;fontStyle=0;childLayout=stackLayout;horizontal=1;startSize=30;horizontalStack=0;resizeParent=1;resizeParentMax=0;resizeLast=0;collapsible=1;marginBottom=0;whiteSpace=wrap;html=1;" vertex="1" parent="1">
          <mxGeometry x="26" y="60" width="140" height="210" as="geometry" />
        </mxCell>
        <mxCell id="uZyzI6NEN6Hpzn3eU7x3-2" value="user_id - pk" style="text;strokeColor=none;fillColor=none;align=left;verticalAlign=middle;spacingLeft=4;spacingRight=4;overflow=hidden;points=[[0,0.5],[1,0.5]];portConstraint=eastwest;rotatable=0;whiteSpace=wrap;html=1;" vertex="1" parent="uZyzI6NEN6Hpzn3eU7x3-1">
          <mxGeometry y="30" width="140" height="30" as="geometry" />
        </mxCell>
        <mxCell id="uZyzI6NEN6Hpzn3eU7x3-3" value="username" style="text;strokeColor=none;fillColor=none;align=left;verticalAlign=middle;spacingLeft=4;spacingRight=4;overflow=hidden;points=[[0,0.5],[1,0.5]];portConstraint=eastwest;rotatable=0;whiteSpace=wrap;html=1;" vertex="1" parent="uZyzI6NEN6Hpzn3eU7x3-1">
          <mxGeometry y="60" width="140" height="30" as="geometry" />
        </mxCell>
        <mxCell id="uZyzI6NEN6Hpzn3eU7x3-4" value="email" style="text;strokeColor=none;fillColor=none;align=left;verticalAlign=middle;spacingLeft=4;spacingRight=4;overflow=hidden;points=[[0,0.5],[1,0.5]];portConstraint=eastwest;rotatable=0;whiteSpace=wrap;html=1;" vertex="1" parent="uZyzI6NEN6Hpzn3eU7x3-1">
          <mxGeometry y="90" width="140" height="30" as="geometry" />
        </mxCell>
        <mxCell id="uZyzI6NEN6Hpzn3eU7x3-5" value="password" style="text;strokeColor=none;fillColor=none;align=left;verticalAlign=middle;spacingLeft=4;spacingRight=4;overflow=hidden;points=[[0,0.5],[1,0.5]];portConstraint=eastwest;rotatable=0;whiteSpace=wrap;html=1;" vertex="1" parent="uZyzI6NEN6Hpzn3eU7x3-1">
          <mxGeometry y="120" width="140" height="30" as="geometry" />
        </mxCell>
        <mxCell id="uZyzI6NEN6Hpzn3eU7x3-6" value="created_at" style="text;strokeColor=none;fillColor=none;align=left;verticalAlign=middle;spacingLeft=4;spacingRight=4;overflow=hidden;points=[[0,0.5],[1,0.5]];portConstraint=eastwest;rotatable=0;whiteSpace=wrap;html=1;" vertex="1" parent="uZyzI6NEN6Hpzn3eU7x3-1">
          <mxGeometry y="150" width="140" height="30" as="geometry" />
        </mxCell>
        <mxCell id="uZyzI6NEN6Hpzn3eU7x3-7" value="updated_at" style="text;strokeColor=none;fillColor=none;align=left;verticalAlign=middle;spacingLeft=4;spacingRight=4;overflow=hidden;points=[[0,0.5],[1,0.5]];portConstraint=eastwest;rotatable=0;whiteSpace=wrap;html=1;" vertex="1" parent="uZyzI6NEN6Hpzn3eU7x3-1">
          <mxGeometry y="180" width="140" height="30" as="geometry" />
        </mxCell>
        <mxCell id="uZyzI6NEN6Hpzn3eU7x3-8" value="Board" style="swimlane;fontStyle=0;childLayout=stackLayout;horizontal=1;startSize=30;horizontalStack=0;resizeParent=1;resizeParentMax=0;resizeLast=0;collapsible=1;marginBottom=0;whiteSpace=wrap;html=1;" vertex="1" parent="1">
          <mxGeometry x="226" y="60" width="140" height="210" as="geometry" />
        </mxCell>
        <mxCell id="uZyzI6NEN6Hpzn3eU7x3-9" value="board_id - pk" style="text;strokeColor=none;fillColor=none;align=left;verticalAlign=middle;spacingLeft=4;spacingRight=4;overflow=hidden;points=[[0,0.5],[1,0.5]];portConstraint=eastwest;rotatable=0;whiteSpace=wrap;html=1;" vertex="1" parent="uZyzI6NEN6Hpzn3eU7x3-8">
          <mxGeometry y="30" width="140" height="30" as="geometry" />
        </mxCell>
        <mxCell id="uZyzI6NEN6Hpzn3eU7x3-10" value="board_name" style="text;strokeColor=none;fillColor=none;align=left;verticalAlign=middle;spacingLeft=4;spacingRight=4;overflow=hidden;points=[[0,0.5],[1,0.5]];portConstraint=eastwest;rotatable=0;whiteSpace=wrap;html=1;" vertex="1" parent="uZyzI6NEN6Hpzn3eU7x3-8">
          <mxGeometry y="60" width="140" height="30" as="geometry" />
        </mxCell>
        <mxCell id="uZyzI6NEN6Hpzn3eU7x3-11" value="description" style="text;strokeColor=none;fillColor=none;align=left;verticalAlign=middle;spacingLeft=4;spacingRight=4;overflow=hidden;points=[[0,0.5],[1,0.5]];portConstraint=eastwest;rotatable=0;whiteSpace=wrap;html=1;" vertex="1" parent="uZyzI6NEN6Hpzn3eU7x3-8">
          <mxGeometry y="90" width="140" height="30" as="geometry" />
        </mxCell>
        <mxCell id="uZyzI6NEN6Hpzn3eU7x3-12" value="created_at" style="text;strokeColor=none;fillColor=none;align=left;verticalAlign=middle;spacingLeft=4;spacingRight=4;overflow=hidden;points=[[0,0.5],[1,0.5]];portConstraint=eastwest;rotatable=0;whiteSpace=wrap;html=1;" vertex="1" parent="uZyzI6NEN6Hpzn3eU7x3-8">
          <mxGeometry y="120" width="140" height="30" as="geometry" />
        </mxCell>
        <mxCell id="uZyzI6NEN6Hpzn3eU7x3-13" value="updated_at" style="text;strokeColor=none;fillColor=none;align=left;verticalAlign=middle;spacingLeft=4;spacingRight=4;overflow=hidden;points=[[0,0.5],[1,0.5]];portConstraint=eastwest;rotatable=0;whiteSpace=wrap;html=1;" vertex="1" parent="uZyzI6NEN6Hpzn3eU7x3-8">
          <mxGeometry y="150" width="140" height="30" as="geometry" />
        </mxCell>
        <mxCell id="uZyzI6NEN6Hpzn3eU7x3-14" value="user_id -fk" style="text;strokeColor=none;fillColor=none;align=left;verticalAlign=middle;spacingLeft=4;spacingRight=4;overflow=hidden;points=[[0,0.5],[1,0.5]];portConstraint=eastwest;rotatable=0;whiteSpace=wrap;html=1;" vertex="1" parent="uZyzI6NEN6Hpzn3eU7x3-8">
          <mxGeometry y="180" width="140" height="30" as="geometry" />
        </mxCell>
        <mxCell id="uZyzI6NEN6Hpzn3eU7x3-15" value="" style="edgeStyle=orthogonalEdgeStyle;rounded=0;orthogonalLoop=1;jettySize=auto;html=1;entryX=0;entryY=0.5;entryDx=0;entryDy=0;" edge="1" parent="1" source="uZyzI6NEN6Hpzn3eU7x3-2" target="uZyzI6NEN6Hpzn3eU7x3-14">
          <mxGeometry relative="1" as="geometry" />
        </mxCell>
        <mxCell id="uZyzI6NEN6Hpzn3eU7x3-16" value="Column" style="swimlane;fontStyle=0;childLayout=stackLayout;horizontal=1;startSize=30;horizontalStack=0;resizeParent=1;resizeParentMax=0;resizeLast=0;collapsible=1;marginBottom=0;whiteSpace=wrap;html=1;" vertex="1" parent="1">
          <mxGeometry x="416" y="60" width="140" height="180" as="geometry" />
        </mxCell>
        <mxCell id="uZyzI6NEN6Hpzn3eU7x3-17" value="column_id - pk" style="text;strokeColor=none;fillColor=none;align=left;verticalAlign=middle;spacingLeft=4;spacingRight=4;overflow=hidden;points=[[0,0.5],[1,0.5]];portConstraint=eastwest;rotatable=0;whiteSpace=wrap;html=1;" vertex="1" parent="uZyzI6NEN6Hpzn3eU7x3-16">
          <mxGeometry y="30" width="140" height="30" as="geometry" />
        </mxCell>
        <mxCell id="uZyzI6NEN6Hpzn3eU7x3-18" value="column_name" style="text;strokeColor=none;fillColor=none;align=left;verticalAlign=middle;spacingLeft=4;spacingRight=4;overflow=hidden;points=[[0,0.5],[1,0.5]];portConstraint=eastwest;rotatable=0;whiteSpace=wrap;html=1;" vertex="1" parent="uZyzI6NEN6Hpzn3eU7x3-16">
          <mxGeometry y="60" width="140" height="30" as="geometry" />
        </mxCell>
        <mxCell id="uZyzI6NEN6Hpzn3eU7x3-19" value="board_id - fk" style="text;strokeColor=none;fillColor=none;align=left;verticalAlign=middle;spacingLeft=4;spacingRight=4;overflow=hidden;points=[[0,0.5],[1,0.5]];portConstraint=eastwest;rotatable=0;whiteSpace=wrap;html=1;" vertex="1" parent="uZyzI6NEN6Hpzn3eU7x3-16">
          <mxGeometry y="90" width="140" height="30" as="geometry" />
        </mxCell>
        <mxCell id="uZyzI6NEN6Hpzn3eU7x3-20" value="created_at" style="text;strokeColor=none;fillColor=none;align=left;verticalAlign=middle;spacingLeft=4;spacingRight=4;overflow=hidden;points=[[0,0.5],[1,0.5]];portConstraint=eastwest;rotatable=0;whiteSpace=wrap;html=1;" vertex="1" parent="uZyzI6NEN6Hpzn3eU7x3-16">
          <mxGeometry y="120" width="140" height="30" as="geometry" />
        </mxCell>
        <mxCell id="uZyzI6NEN6Hpzn3eU7x3-21" value="updated_at" style="text;strokeColor=none;fillColor=none;align=left;verticalAlign=middle;spacingLeft=4;spacingRight=4;overflow=hidden;points=[[0,0.5],[1,0.5]];portConstraint=eastwest;rotatable=0;whiteSpace=wrap;html=1;" vertex="1" parent="uZyzI6NEN6Hpzn3eU7x3-16">
          <mxGeometry y="150" width="140" height="30" as="geometry" />
        </mxCell>
        <mxCell id="uZyzI6NEN6Hpzn3eU7x3-23" style="edgeStyle=orthogonalEdgeStyle;rounded=0;orthogonalLoop=1;jettySize=auto;html=1;exitX=1;exitY=0.5;exitDx=0;exitDy=0;entryX=0;entryY=0.5;entryDx=0;entryDy=0;" edge="1" parent="1" source="uZyzI6NEN6Hpzn3eU7x3-9" target="uZyzI6NEN6Hpzn3eU7x3-19">
          <mxGeometry relative="1" as="geometry" />
        </mxCell>
        <mxCell id="uZyzI6NEN6Hpzn3eU7x3-24" value="Task" style="swimlane;fontStyle=0;childLayout=stackLayout;horizontal=1;startSize=30;horizontalStack=0;resizeParent=1;resizeParentMax=0;resizeLast=0;collapsible=1;marginBottom=0;whiteSpace=wrap;html=1;" vertex="1" parent="1">
          <mxGeometry x="606" y="60" width="140" height="270" as="geometry" />
        </mxCell>
        <mxCell id="uZyzI6NEN6Hpzn3eU7x3-25" value="task_id - pk" style="text;strokeColor=none;fillColor=none;align=left;verticalAlign=middle;spacingLeft=4;spacingRight=4;overflow=hidden;points=[[0,0.5],[1,0.5]];portConstraint=eastwest;rotatable=0;whiteSpace=wrap;html=1;" vertex="1" parent="uZyzI6NEN6Hpzn3eU7x3-24">
          <mxGeometry y="30" width="140" height="30" as="geometry" />
        </mxCell>
        <mxCell id="uZyzI6NEN6Hpzn3eU7x3-26" value="task_name" style="text;strokeColor=none;fillColor=none;align=left;verticalAlign=middle;spacingLeft=4;spacingRight=4;overflow=hidden;points=[[0,0.5],[1,0.5]];portConstraint=eastwest;rotatable=0;whiteSpace=wrap;html=1;" vertex="1" parent="uZyzI6NEN6Hpzn3eU7x3-24">
          <mxGeometry y="60" width="140" height="30" as="geometry" />
        </mxCell>
        <mxCell id="uZyzI6NEN6Hpzn3eU7x3-27" value="description" style="text;strokeColor=none;fillColor=none;align=left;verticalAlign=middle;spacingLeft=4;spacingRight=4;overflow=hidden;points=[[0,0.5],[1,0.5]];portConstraint=eastwest;rotatable=0;whiteSpace=wrap;html=1;" vertex="1" parent="uZyzI6NEN6Hpzn3eU7x3-24">
          <mxGeometry y="90" width="140" height="30" as="geometry" />
        </mxCell>
        <mxCell id="uZyzI6NEN6Hpzn3eU7x3-28" value="status" style="text;strokeColor=none;fillColor=none;align=left;verticalAlign=middle;spacingLeft=4;spacingRight=4;overflow=hidden;points=[[0,0.5],[1,0.5]];portConstraint=eastwest;rotatable=0;whiteSpace=wrap;html=1;" vertex="1" parent="uZyzI6NEN6Hpzn3eU7x3-24">
          <mxGeometry y="120" width="140" height="30" as="geometry" />
        </mxCell>
        <mxCell id="uZyzI6NEN6Hpzn3eU7x3-29" value="due_date" style="text;strokeColor=none;fillColor=none;align=left;verticalAlign=middle;spacingLeft=4;spacingRight=4;overflow=hidden;points=[[0,0.5],[1,0.5]];portConstraint=eastwest;rotatable=0;whiteSpace=wrap;html=1;" vertex="1" parent="uZyzI6NEN6Hpzn3eU7x3-24">
          <mxGeometry y="150" width="140" height="30" as="geometry" />
        </mxCell>
        <mxCell id="uZyzI6NEN6Hpzn3eU7x3-31" value="created_at" style="text;strokeColor=none;fillColor=none;align=left;verticalAlign=middle;spacingLeft=4;spacingRight=4;overflow=hidden;points=[[0,0.5],[1,0.5]];portConstraint=eastwest;rotatable=0;whiteSpace=wrap;html=1;" vertex="1" parent="uZyzI6NEN6Hpzn3eU7x3-24">
          <mxGeometry y="180" width="140" height="30" as="geometry" />
        </mxCell>
        <mxCell id="uZyzI6NEN6Hpzn3eU7x3-30" value="updated_at" style="text;strokeColor=none;fillColor=none;align=left;verticalAlign=middle;spacingLeft=4;spacingRight=4;overflow=hidden;points=[[0,0.5],[1,0.5]];portConstraint=eastwest;rotatable=0;whiteSpace=wrap;html=1;" vertex="1" parent="uZyzI6NEN6Hpzn3eU7x3-24">
          <mxGeometry y="210" width="140" height="30" as="geometry" />
        </mxCell>
        <mxCell id="uZyzI6NEN6Hpzn3eU7x3-37" value="column_id - fk" style="text;strokeColor=none;fillColor=none;align=left;verticalAlign=middle;spacingLeft=4;spacingRight=4;overflow=hidden;points=[[0,0.5],[1,0.5]];portConstraint=eastwest;rotatable=0;whiteSpace=wrap;html=1;" vertex="1" parent="uZyzI6NEN6Hpzn3eU7x3-24">
          <mxGeometry y="240" width="140" height="30" as="geometry" />
        </mxCell>
        <mxCell id="uZyzI6NEN6Hpzn3eU7x3-58" style="edgeStyle=orthogonalEdgeStyle;rounded=0;orthogonalLoop=1;jettySize=auto;html=1;exitX=0;exitY=0.5;exitDx=0;exitDy=0;entryX=0.007;entryY=0.3;entryDx=0;entryDy=0;entryPerimeter=0;" edge="1" parent="uZyzI6NEN6Hpzn3eU7x3-24" source="uZyzI6NEN6Hpzn3eU7x3-25" target="uZyzI6NEN6Hpzn3eU7x3-25">
          <mxGeometry relative="1" as="geometry" />
        </mxCell>
        <mxCell id="uZyzI6NEN6Hpzn3eU7x3-38" style="edgeStyle=orthogonalEdgeStyle;rounded=0;orthogonalLoop=1;jettySize=auto;html=1;exitX=1;exitY=0.5;exitDx=0;exitDy=0;" edge="1" parent="1" source="uZyzI6NEN6Hpzn3eU7x3-17" target="uZyzI6NEN6Hpzn3eU7x3-37">
          <mxGeometry relative="1" as="geometry" />
        </mxCell>
        <mxCell id="uZyzI6NEN6Hpzn3eU7x3-39" value="Subtask" style="swimlane;fontStyle=0;childLayout=stackLayout;horizontal=1;startSize=30;horizontalStack=0;resizeParent=1;resizeParentMax=0;resizeLast=0;collapsible=1;marginBottom=0;whiteSpace=wrap;html=1;" vertex="1" parent="1">
          <mxGeometry x="42" y="400" width="140" height="240" as="geometry" />
        </mxCell>
        <mxCell id="uZyzI6NEN6Hpzn3eU7x3-40" value="subtask_id - pk" style="text;strokeColor=none;fillColor=none;align=left;verticalAlign=middle;spacingLeft=4;spacingRight=4;overflow=hidden;points=[[0,0.5],[1,0.5]];portConstraint=eastwest;rotatable=0;whiteSpace=wrap;html=1;" vertex="1" parent="uZyzI6NEN6Hpzn3eU7x3-39">
          <mxGeometry y="30" width="140" height="30" as="geometry" />
        </mxCell>
        <mxCell id="uZyzI6NEN6Hpzn3eU7x3-41" value="subtask_name" style="text;strokeColor=none;fillColor=none;align=left;verticalAlign=middle;spacingLeft=4;spacingRight=4;overflow=hidden;points=[[0,0.5],[1,0.5]];portConstraint=eastwest;rotatable=0;whiteSpace=wrap;html=1;" vertex="1" parent="uZyzI6NEN6Hpzn3eU7x3-39">
          <mxGeometry y="60" width="140" height="30" as="geometry" />
        </mxCell>
        <mxCell id="uZyzI6NEN6Hpzn3eU7x3-42" value="description" style="text;strokeColor=none;fillColor=none;align=left;verticalAlign=middle;spacingLeft=4;spacingRight=4;overflow=hidden;points=[[0,0.5],[1,0.5]];portConstraint=eastwest;rotatable=0;whiteSpace=wrap;html=1;" vertex="1" parent="uZyzI6NEN6Hpzn3eU7x3-39">
          <mxGeometry y="90" width="140" height="30" as="geometry" />
        </mxCell>
        <mxCell id="uZyzI6NEN6Hpzn3eU7x3-43" value="status" style="text;strokeColor=none;fillColor=none;align=left;verticalAlign=middle;spacingLeft=4;spacingRight=4;overflow=hidden;points=[[0,0.5],[1,0.5]];portConstraint=eastwest;rotatable=0;whiteSpace=wrap;html=1;" vertex="1" parent="uZyzI6NEN6Hpzn3eU7x3-39">
          <mxGeometry y="120" width="140" height="30" as="geometry" />
        </mxCell>
        <mxCell id="uZyzI6NEN6Hpzn3eU7x3-44" value="task_id - fk" style="text;strokeColor=none;fillColor=none;align=left;verticalAlign=middle;spacingLeft=4;spacingRight=4;overflow=hidden;points=[[0,0.5],[1,0.5]];portConstraint=eastwest;rotatable=0;whiteSpace=wrap;html=1;" vertex="1" parent="uZyzI6NEN6Hpzn3eU7x3-39">
          <mxGeometry y="150" width="140" height="30" as="geometry" />
        </mxCell>
        <mxCell id="uZyzI6NEN6Hpzn3eU7x3-45" value="created_at" style="text;strokeColor=none;fillColor=none;align=left;verticalAlign=middle;spacingLeft=4;spacingRight=4;overflow=hidden;points=[[0,0.5],[1,0.5]];portConstraint=eastwest;rotatable=0;whiteSpace=wrap;html=1;" vertex="1" parent="uZyzI6NEN6Hpzn3eU7x3-39">
          <mxGeometry y="180" width="140" height="30" as="geometry" />
        </mxCell>
        <mxCell id="uZyzI6NEN6Hpzn3eU7x3-46" value="updated_at" style="text;strokeColor=none;fillColor=none;align=left;verticalAlign=middle;spacingLeft=4;spacingRight=4;overflow=hidden;points=[[0,0.5],[1,0.5]];portConstraint=eastwest;rotatable=0;whiteSpace=wrap;html=1;" vertex="1" parent="uZyzI6NEN6Hpzn3eU7x3-39">
          <mxGeometry y="210" width="140" height="30" as="geometry" />
        </mxCell>
        <mxCell id="uZyzI6NEN6Hpzn3eU7x3-48" style="edgeStyle=orthogonalEdgeStyle;rounded=0;orthogonalLoop=1;jettySize=auto;html=1;exitX=1;exitY=0.5;exitDx=0;exitDy=0;entryX=-0.007;entryY=1;entryDx=0;entryDy=0;entryPerimeter=0;" edge="1" parent="1" source="uZyzI6NEN6Hpzn3eU7x3-25" target="uZyzI6NEN6Hpzn3eU7x3-40">
          <mxGeometry relative="1" as="geometry">
            <Array as="points">
              <mxPoint x="746" y="120" />
              <mxPoint x="766" y="120" />
              <mxPoint x="766" y="360" />
              <mxPoint x="25" y="360" />
              <mxPoint x="25" y="460" />
            </Array>
          </mxGeometry>
        </mxCell>
        <mxCell id="uZyzI6NEN6Hpzn3eU7x3-49" value="File" style="swimlane;fontStyle=0;childLayout=stackLayout;horizontal=1;startSize=30;horizontalStack=0;resizeParent=1;resizeParentMax=0;resizeLast=0;collapsible=1;marginBottom=0;whiteSpace=wrap;html=1;" vertex="1" parent="1">
          <mxGeometry x="276" y="440" width="140" height="180" as="geometry" />
        </mxCell>
        <mxCell id="uZyzI6NEN6Hpzn3eU7x3-50" value="file_id - pk" style="text;strokeColor=none;fillColor=none;align=left;verticalAlign=middle;spacingLeft=4;spacingRight=4;overflow=hidden;points=[[0,0.5],[1,0.5]];portConstraint=eastwest;rotatable=0;whiteSpace=wrap;html=1;" vertex="1" parent="uZyzI6NEN6Hpzn3eU7x3-49">
          <mxGeometry y="30" width="140" height="30" as="geometry" />
        </mxCell>
        <mxCell id="uZyzI6NEN6Hpzn3eU7x3-51" value="file_name" style="text;strokeColor=none;fillColor=none;align=left;verticalAlign=middle;spacingLeft=4;spacingRight=4;overflow=hidden;points=[[0,0.5],[1,0.5]];portConstraint=eastwest;rotatable=0;whiteSpace=wrap;html=1;" vertex="1" parent="uZyzI6NEN6Hpzn3eU7x3-49">
          <mxGeometry y="60" width="140" height="30" as="geometry" />
        </mxCell>
        <mxCell id="uZyzI6NEN6Hpzn3eU7x3-52" value="file_path" style="text;strokeColor=none;fillColor=none;align=left;verticalAlign=middle;spacingLeft=4;spacingRight=4;overflow=hidden;points=[[0,0.5],[1,0.5]];portConstraint=eastwest;rotatable=0;whiteSpace=wrap;html=1;" vertex="1" parent="uZyzI6NEN6Hpzn3eU7x3-49">
          <mxGeometry y="90" width="140" height="30" as="geometry" />
        </mxCell>
        <mxCell id="uZyzI6NEN6Hpzn3eU7x3-53" value="uploaded_at" style="text;strokeColor=none;fillColor=none;align=left;verticalAlign=middle;spacingLeft=4;spacingRight=4;overflow=hidden;points=[[0,0.5],[1,0.5]];portConstraint=eastwest;rotatable=0;whiteSpace=wrap;html=1;" vertex="1" parent="uZyzI6NEN6Hpzn3eU7x3-49">
          <mxGeometry y="120" width="140" height="30" as="geometry" />
        </mxCell>
        <mxCell id="uZyzI6NEN6Hpzn3eU7x3-54" value="task_id - fk" style="text;strokeColor=none;fillColor=none;align=left;verticalAlign=middle;spacingLeft=4;spacingRight=4;overflow=hidden;points=[[0,0.5],[1,0.5]];portConstraint=eastwest;rotatable=0;whiteSpace=wrap;html=1;" vertex="1" parent="uZyzI6NEN6Hpzn3eU7x3-49">
          <mxGeometry y="150" width="140" height="30" as="geometry" />
        </mxCell>
        <mxCell id="uZyzI6NEN6Hpzn3eU7x3-59" style="edgeStyle=orthogonalEdgeStyle;rounded=0;orthogonalLoop=1;jettySize=auto;html=1;entryX=0;entryY=0.5;entryDx=0;entryDy=0;exitX=1;exitY=0.5;exitDx=0;exitDy=0;" edge="1" parent="1" source="uZyzI6NEN6Hpzn3eU7x3-25" target="uZyzI6NEN6Hpzn3eU7x3-54">
          <mxGeometry relative="1" as="geometry">
            <mxPoint x="752" y="105" as="sourcePoint" />
            <mxPoint x="266" y="565" as="targetPoint" />
            <Array as="points">
              <mxPoint x="786" y="105" />
              <mxPoint x="786" y="390" />
              <mxPoint x="222" y="390" />
              <mxPoint x="222" y="605" />
            </Array>
          </mxGeometry>
        </mxCell>
        <mxCell id="uZyzI6NEN6Hpzn3eU7x3-61" value="Comment" style="swimlane;fontStyle=0;childLayout=stackLayout;horizontal=1;startSize=30;horizontalStack=0;resizeParent=1;resizeParentMax=0;resizeLast=0;collapsible=1;marginBottom=0;whiteSpace=wrap;html=1;" vertex="1" parent="1">
          <mxGeometry x="492" y="440" width="140" height="180" as="geometry" />
        </mxCell>
        <mxCell id="uZyzI6NEN6Hpzn3eU7x3-62" value="comment_id - pk" style="text;strokeColor=none;fillColor=none;align=left;verticalAlign=middle;spacingLeft=4;spacingRight=4;overflow=hidden;points=[[0,0.5],[1,0.5]];portConstraint=eastwest;rotatable=0;whiteSpace=wrap;html=1;" vertex="1" parent="uZyzI6NEN6Hpzn3eU7x3-61">
          <mxGeometry y="30" width="140" height="30" as="geometry" />
        </mxCell>
        <mxCell id="uZyzI6NEN6Hpzn3eU7x3-63" value="comment_text" style="text;strokeColor=none;fillColor=none;align=left;verticalAlign=middle;spacingLeft=4;spacingRight=4;overflow=hidden;points=[[0,0.5],[1,0.5]];portConstraint=eastwest;rotatable=0;whiteSpace=wrap;html=1;" vertex="1" parent="uZyzI6NEN6Hpzn3eU7x3-61">
          <mxGeometry y="60" width="140" height="30" as="geometry" />
        </mxCell>
        <mxCell id="uZyzI6NEN6Hpzn3eU7x3-64" value="created_at" style="text;strokeColor=none;fillColor=none;align=left;verticalAlign=middle;spacingLeft=4;spacingRight=4;overflow=hidden;points=[[0,0.5],[1,0.5]];portConstraint=eastwest;rotatable=0;whiteSpace=wrap;html=1;" vertex="1" parent="uZyzI6NEN6Hpzn3eU7x3-61">
          <mxGeometry y="90" width="140" height="30" as="geometry" />
        </mxCell>
        <mxCell id="uZyzI6NEN6Hpzn3eU7x3-65" value="user_id - fk" style="text;strokeColor=none;fillColor=none;align=left;verticalAlign=middle;spacingLeft=4;spacingRight=4;overflow=hidden;points=[[0,0.5],[1,0.5]];portConstraint=eastwest;rotatable=0;whiteSpace=wrap;html=1;" vertex="1" parent="uZyzI6NEN6Hpzn3eU7x3-61">
          <mxGeometry y="120" width="140" height="30" as="geometry" />
        </mxCell>
        <mxCell id="uZyzI6NEN6Hpzn3eU7x3-66" value="task_id - fk" style="text;strokeColor=none;fillColor=none;align=left;verticalAlign=middle;spacingLeft=4;spacingRight=4;overflow=hidden;points=[[0,0.5],[1,0.5]];portConstraint=eastwest;rotatable=0;whiteSpace=wrap;html=1;" vertex="1" parent="uZyzI6NEN6Hpzn3eU7x3-61">
          <mxGeometry y="150" width="140" height="30" as="geometry" />
        </mxCell>
        <mxCell id="uZyzI6NEN6Hpzn3eU7x3-69" style="edgeStyle=orthogonalEdgeStyle;rounded=0;orthogonalLoop=1;jettySize=auto;html=1;exitX=1;exitY=0.5;exitDx=0;exitDy=0;entryX=0;entryY=0.8;entryDx=0;entryDy=0;entryPerimeter=0;" edge="1" parent="1" source="uZyzI6NEN6Hpzn3eU7x3-25" target="uZyzI6NEN6Hpzn3eU7x3-66">
          <mxGeometry relative="1" as="geometry">
            <Array as="points">
              <mxPoint x="746" y="90" />
              <mxPoint x="822" y="90" />
              <mxPoint x="822" y="410" />
              <mxPoint x="472" y="410" />
              <mxPoint x="472" y="614" />
            </Array>
          </mxGeometry>
        </mxCell>
        <mxCell id="uZyzI6NEN6Hpzn3eU7x3-70" style="edgeStyle=orthogonalEdgeStyle;rounded=0;orthogonalLoop=1;jettySize=auto;html=1;exitX=0;exitY=0.5;exitDx=0;exitDy=0;entryX=1;entryY=0.5;entryDx=0;entryDy=0;" edge="1" parent="1" source="uZyzI6NEN6Hpzn3eU7x3-2" target="uZyzI6NEN6Hpzn3eU7x3-65">
          <mxGeometry relative="1" as="geometry">
            <Array as="points">
              <mxPoint x="6" y="105" />
              <mxPoint x="6" y="660" />
              <mxPoint x="652" y="660" />
              <mxPoint x="652" y="575" />
            </Array>
          </mxGeometry>
        </mxCell>
        <mxCell id="uZyzI6NEN6Hpzn3eU7x3-71" value="1" style="text;html=1;align=center;verticalAlign=middle;resizable=0;points=[];autosize=1;strokeColor=none;fillColor=none;" vertex="1" parent="1">
          <mxGeometry x="165" y="110" width="30" height="30" as="geometry" />
        </mxCell>
        <mxCell id="uZyzI6NEN6Hpzn3eU7x3-72" value="n" style="text;html=1;align=center;verticalAlign=middle;resizable=0;points=[];autosize=1;strokeColor=none;fillColor=none;" vertex="1" parent="1">
          <mxGeometry x="196" y="250" width="30" height="30" as="geometry" />
        </mxCell>
        <mxCell id="uZyzI6NEN6Hpzn3eU7x3-73" value="1" style="text;html=1;align=center;verticalAlign=middle;resizable=0;points=[];autosize=1;strokeColor=none;fillColor=none;" vertex="1" parent="1">
          <mxGeometry x="365" y="108" width="30" height="30" as="geometry" />
        </mxCell>
        <mxCell id="uZyzI6NEN6Hpzn3eU7x3-74" value="n" style="text;html=1;align=center;verticalAlign=middle;resizable=0;points=[];autosize=1;strokeColor=none;fillColor=none;" vertex="1" parent="1">
          <mxGeometry x="386" y="160" width="30" height="30" as="geometry" />
        </mxCell>
        <mxCell id="uZyzI6NEN6Hpzn3eU7x3-75" value="1" style="text;html=1;align=center;verticalAlign=middle;resizable=0;points=[];autosize=1;strokeColor=none;fillColor=none;" vertex="1" parent="1">
          <mxGeometry x="556" y="110" width="30" height="30" as="geometry" />
        </mxCell>
        <mxCell id="uZyzI6NEN6Hpzn3eU7x3-76" value="n" style="text;html=1;align=center;verticalAlign=middle;resizable=0;points=[];autosize=1;strokeColor=none;fillColor=none;" vertex="1" parent="1">
          <mxGeometry x="576" y="310" width="30" height="30" as="geometry" />
        </mxCell>
        <mxCell id="uZyzI6NEN6Hpzn3eU7x3-77" value="1" style="text;html=1;align=center;verticalAlign=middle;resizable=0;points=[];autosize=1;strokeColor=none;fillColor=none;" vertex="1" parent="1">
          <mxGeometry x="745" y="118" width="30" height="30" as="geometry" />
        </mxCell>
        <mxCell id="uZyzI6NEN6Hpzn3eU7x3-78" value="n" style="text;html=1;align=center;verticalAlign=middle;resizable=0;points=[];autosize=1;strokeColor=none;fillColor=none;" vertex="1" parent="1">
          <mxGeometry x="15" y="468" width="30" height="30" as="geometry" />
        </mxCell>
        <mxCell id="uZyzI6NEN6Hpzn3eU7x3-79" value="1" style="text;html=1;align=center;verticalAlign=middle;resizable=0;points=[];autosize=1;strokeColor=none;fillColor=none;" vertex="1" parent="1">
          <mxGeometry x="745" y="98" width="30" height="30" as="geometry" />
        </mxCell>
        <mxCell id="uZyzI6NEN6Hpzn3eU7x3-80" value="n" style="text;html=1;align=center;verticalAlign=middle;resizable=0;points=[];autosize=1;strokeColor=none;fillColor=none;" vertex="1" parent="1">
          <mxGeometry x="245" y="608" width="30" height="30" as="geometry" />
        </mxCell>
        <mxCell id="uZyzI6NEN6Hpzn3eU7x3-81" value="1" style="text;html=1;align=center;verticalAlign=middle;resizable=0;points=[];autosize=1;strokeColor=none;fillColor=none;" vertex="1" parent="1">
          <mxGeometry x="745" y="80" width="30" height="30" as="geometry" />
        </mxCell>
        <mxCell id="uZyzI6NEN6Hpzn3eU7x3-82" value="n" style="text;html=1;align=center;verticalAlign=middle;resizable=0;points=[];autosize=1;strokeColor=none;fillColor=none;" vertex="1" parent="1">
          <mxGeometry x="465" y="618" width="30" height="30" as="geometry" />
        </mxCell>
        <mxCell id="uZyzI6NEN6Hpzn3eU7x3-83" value="1" style="text;html=1;align=center;verticalAlign=middle;resizable=0;points=[];autosize=1;strokeColor=none;fillColor=none;" vertex="1" parent="1">
          <mxGeometry y="98" width="30" height="30" as="geometry" />
        </mxCell>
        <mxCell id="uZyzI6NEN6Hpzn3eU7x3-84" value="n" style="text;html=1;align=center;verticalAlign=middle;resizable=0;points=[];autosize=1;strokeColor=none;fillColor=none;" vertex="1" parent="1">
          <mxGeometry x="630" y="570" width="30" height="30" as="geometry" />
        </mxCell>
      </root>
    </mxGraphModel>
  </diagram>
</mxfile>
